# xmcd
# Track frame offsets:
# 150
# 14149
# 30355
# 43163
# 59495
# 78310
# 93385
# 110343
# 125144
# 139949
#
# Disc length: 2034 seconds
# Revision: 0
# Processed by: cddbd v1.4PL0 Copyright (c) Steve Scherf et al.
# Submitted via: VisiTrax 2.9.5.180 - For more info visit www.synapsa.com
#
DISCID=8a07f00a
DTITLE=Frank Jansen - Lolene
DYEAR=1999
DGENRE=Country
TTITLE0=A dream that can't come true
TTITLE1=Our hearts already belong
TTITLE2=Love is like a circus
TTITLE3=I'll settle for being near
TTITLE4=Lolene
TTITLE5=Polished steel
TTITLE6=Another lesson learned
TTITLE7=Sad and all alone
TTITLE8=I still miss someone
TTITLE9=Hard time holding on
EXTD=867.02 Country Discovery Record
EXTT0=
EXTT1=
EXTT2=
EXTT3=
EXTT4=
EXTT5=
EXTT6=
EXTT7=
EXTT8=
EXTT9=
PLAYORDER=
